<?xml version="1.0" encoding="UTF-8"?>
<svg id="Layer_1" data-name="Layer 1" xmlns="http://www.w3.org/2000/svg" xmlns:xlink="http://www.w3.org/1999/xlink" viewBox="0 0 130 40">
  <defs>
    <style>
      .cls-1 {
        fill: url(#linear-gradient);
      }

      .cls-2 {
        fill: #1e1e1e;
      }
    </style>
    <linearGradient id="linear-gradient" x1="22.49" y1="20" x2="60.45" y2="20" gradientUnits="userSpaceOnUse">
      <stop offset="0" stop-color="#cb00ff"/>
      <stop offset="1" stop-color="#fff"/>
    </linearGradient>
  </defs>
  <g id="PbQSku">
    <path class="cls-1" d="M50.57,23.08l-6.73-5.91h0s-14.06-12.25-14.06-12.25c-2.4-1.95-5.86-.9-6.96,1.73-.22.53-.33,1.11-.33,1.69v22.15c0,1.13.31,2.25.91,3.21,3.34,5.34,12.13.84,9.72-5.22-.38-.95-.99-1.8-1.76-2.48l-7.02-6.19c-.04-.18.83-.57,1.01-.64,1.46-.54,2.82-.36,4.12.46l18.05,15.62c5.56,3.15,11.24-3.51,7.23-8.51l-4.16-3.68Z"/>
  </g>
  <g>
    <g>
      <path d="M53.68,18.33v7.15h-2.7v-1.49c-.69,1.05-2.01,1.65-3.84,1.65-2.79,0-4.55-1.53-4.55-3.66s1.37-3.63,5.07-3.63h3.15v-.18c0-1.67-1.01-2.65-3.04-2.65-1.37,0-2.79.46-3.7,1.21l-1.12-2.08c1.3-1.01,3.2-1.51,5.16-1.51,3.52,0,5.55,1.67,5.55,5.19ZM50.82,21.67v-1.42h-2.95c-1.94,0-2.47.73-2.47,1.62,0,1.03.87,1.69,2.33,1.69s2.6-.64,3.08-1.9Z"/>
      <path d="M64.75,23.2v2.28h-10.53v-1.81l6.69-8.11h-6.56v-2.28h10.21v1.81l-6.72,8.11h6.9Z"/>
      <path d="M65.16,9.56c0-.96.78-1.71,1.83-1.71s1.83.71,1.83,1.65c0,1.01-.75,1.78-1.83,1.78s-1.83-.75-1.83-1.71ZM65.55,13.28h2.86v12.2h-2.86v-12.2Z"/>
      <path d="M81.27,20.3h-9.57c.34,1.78,1.83,2.92,3.95,2.92,1.37,0,2.44-.43,3.31-1.33l1.53,1.76c-1.1,1.3-2.81,1.99-4.91,1.99-4.09,0-6.74-2.63-6.74-6.26s2.67-6.24,6.31-6.24,6.17,2.49,6.17,6.31c0,.23-.02.57-.05.85ZM71.67,18.4h6.92c-.23-1.76-1.58-2.97-3.45-2.97s-3.2,1.19-3.47,2.97Z"/>
      <path d="M93.91,18.49v6.99h-2.86v-6.63c0-2.17-1.07-3.22-2.9-3.22-2.03,0-3.4,1.23-3.4,3.68v6.17h-2.86v-12.2h2.72v1.58c.94-1.12,2.42-1.71,4.2-1.71,2.92,0,5.1,1.67,5.1,5.35Z"/>
      <path d="M107.51,8.53v16.95h-2.74v-1.58c-.96,1.17-2.38,1.74-4.04,1.74-3.54,0-6.17-2.47-6.17-6.26s2.63-6.24,6.17-6.24c1.58,0,2.97.53,3.93,1.65v-6.26h2.86ZM104.7,19.39c0-2.33-1.58-3.82-3.63-3.82s-3.63,1.49-3.63,3.82,1.58,3.82,3.63,3.82,3.63-1.49,3.63-3.82Z"/>
    </g>
    <g>
      <path class="cls-2" d="M53.68,18.33v7.15h-2.7v-1.49c-.69,1.05-2.01,1.65-3.84,1.65-2.79,0-4.55-1.53-4.55-3.66s1.37-3.63,5.07-3.63h3.15v-.18c0-1.67-1.01-2.65-3.04-2.65-1.37,0-2.79.46-3.7,1.21l-1.12-2.08c1.3-1.01,3.2-1.51,5.16-1.51,3.52,0,5.55,1.67,5.55,5.19ZM50.82,21.67v-1.42h-2.95c-1.94,0-2.47.73-2.47,1.62,0,1.03.87,1.69,2.33,1.69s2.6-.64,3.08-1.9Z"/>
      <path class="cls-2" d="M64.75,23.2v2.28h-10.53v-1.81l6.69-8.11h-6.56v-2.28h10.21v1.81l-6.72,8.11h6.9Z"/>
      <path class="cls-2" d="M65.16,9.56c0-.96.78-1.71,1.83-1.71s1.83.71,1.83,1.65c0,1.01-.75,1.78-1.83,1.78s-1.83-.75-1.83-1.71ZM65.55,13.28h2.86v12.2h-2.86v-12.2Z"/>
      <path class="cls-2" d="M81.27,20.3h-9.57c.34,1.78,1.83,2.92,3.95,2.92,1.37,0,2.44-.43,3.31-1.33l1.53,1.76c-1.1,1.3-2.81,1.99-4.91,1.99-4.09,0-6.74-2.63-6.74-6.26s2.67-6.24,6.31-6.24,6.17,2.49,6.17,6.31c0,.23-.02.57-.05.85ZM71.67,18.4h6.92c-.23-1.76-1.58-2.97-3.45-2.97s-3.2,1.19-3.47,2.97Z"/>
      <path class="cls-2" d="M93.91,18.49v6.99h-2.86v-6.63c0-2.17-1.07-3.22-2.9-3.22-2.03,0-3.4,1.23-3.4,3.68v6.17h-2.86v-12.2h2.72v1.58c.94-1.12,2.42-1.71,4.2-1.71,2.92,0,5.1,1.67,5.1,5.35Z"/>
      <path class="cls-2" d="M107.51,8.53v16.95h-2.74v-1.58c-.96,1.17-2.38,1.74-4.04,1.74-3.54,0-6.17-2.47-6.17-6.26s2.63-6.24,6.17-6.24c1.58,0,2.97.53,3.93,1.65v-6.26h2.86ZM104.7,19.39c0-2.33-1.58-3.82-3.63-3.82s-3.63,1.49-3.63,3.82,1.58,3.82,3.63,3.82,3.63-1.49,3.63-3.82Z"/>
    </g>
  </g>
</svg>